# xmcd
#
# Track frame offsets:
#	150
#	19229
#	38874
#	58216
#	79845
#	99405
#	117782
#	131659
#	145177
#	166146
#	178434
#	192128
#	209363
#
# Disc length: 2996 seconds
# Revision: 0
# Processed by: cddbd v1.5.2PL0 Copyright (c) Steve Scherf et al.
# Submitted via: dBpowerAMP V12.0
#
DISCID=b80bb20d
DTITLE=Dennis Gruenling - Rockin' All Day
DYEAR=2012
DGENRE=Blues
TTITLE0=Rockin' All Day
TTITLE1=Roll Your Money Maker
TTITLE2=The Rev
TTITLE3=Saturday Night Fish Fry
TTITLE4=One Scotch, One Bourbon, One Beer
TTITLE5=She's So Pretty
TTITLE6=You Can Do No Wrong
TTITLE7=It Went Down Easy
TTITLE8=2:22 Am
TTITLE9=What's Wrong With Me
TTITLE10=Bloodshot Eyes
TTITLE11=Actin' Crazy
TTITLE12=Hotso
EXTD=
EXTT0=
EXTT1=
EXTT2=
EXTT3=
EXTT4=
EXTT5=
EXTT6=
EXTT7=
EXTT8=
EXTT9=
EXTT10=
EXTT11=
EXTT12=
PLAYORDER=
